<svg width="726" height="1144" viewBox="0 0 726 1144" fill="none" xmlns="http://www.w3.org/2000/svg">
<g clip-path="url(#clip0_2130_45766)">
<path d="M2439 -442H-561V1583H2439V-442Z" fill="white"/>
<path d="M360.45 1143.93C515.719 1143.93 641.59 1131.76 641.59 1116.75C641.59 1101.74 515.719 1089.57 360.45 1089.57C205.181 1089.57 79.3101 1101.74 79.3101 1116.75C79.3101 1131.76 205.181 1143.93 360.45 1143.93Z" fill="#F1F2F2"/>
<path d="M402.45 300.439H315.92V329.869H402.45V300.439Z" fill="#C5403F"/>
<path d="M469.17 125.37H251.74C241.749 125.37 233.65 133.469 233.65 143.46V282.35C233.65 292.341 241.749 300.44 251.74 300.44H469.17C479.161 300.44 487.26 292.341 487.26 282.35V143.46C487.26 133.469 479.161 125.37 469.17 125.37Z" fill="#7FD3F4"/>
<path d="M343.059 211.43C352.166 189.67 341.909 164.649 320.15 155.542C298.39 146.436 273.368 156.693 264.262 178.452C255.155 200.211 265.412 225.233 287.172 234.34C308.931 243.446 333.953 233.189 343.059 211.43Z" fill="#172C59"/>
<path d="M338.687 206.515C345.139 187.132 334.655 166.188 315.272 159.736C295.888 153.285 274.945 163.768 268.493 183.151C262.041 202.535 272.524 223.478 291.908 229.93C311.291 236.382 332.235 225.899 338.687 206.515Z" fill="#C5403F"/>
<path d="M324.97 152.3H302.1V237.51H324.97V152.3Z" fill="#EA8088"/>
<path d="M297.19 152.3H284.61V237.51H297.19V152.3Z" fill="#EA8088"/>
<path d="M457.318 209.65C465.475 187.517 454.145 162.962 432.012 154.806C409.879 146.649 385.324 157.979 377.168 180.112C369.011 202.245 380.341 226.8 402.474 234.956C424.607 243.113 449.162 231.782 457.318 209.65Z" fill="#172C59"/>
<path d="M443.416 221.058C457.862 206.613 457.862 183.192 443.416 168.747C428.971 154.301 405.55 154.301 391.105 168.746C376.659 183.192 376.659 206.613 391.105 221.058C405.55 235.504 428.971 235.504 443.416 221.058Z" fill="#C5403F"/>
<path d="M414.42 152.22H394.81V243.81H414.42V152.22Z" fill="#EA8088"/>
<path d="M427.38 153.14H419.01V244.73H427.38V153.14Z" fill="#EA8088"/>
<path d="M438.88 153.22H430.51V244.81H438.88V153.22Z" fill="#EA8088"/>
<path d="M408.69 253.74H312.21C309.045 253.74 306.48 256.306 306.48 259.47V278.15C306.48 281.315 309.045 283.88 312.21 283.88H408.69C411.855 283.88 414.42 281.315 414.42 278.15V259.47C414.42 256.306 411.855 253.74 408.69 253.74Z" fill="white"/>
<path d="M320.99 253.74H315.92V283.88H320.99V253.74Z" fill="#172C59"/>
<path d="M332.99 253.74H327.92V283.88H332.99V253.74Z" fill="#172C59"/>
<path d="M344.99 253.74H339.92V283.88H344.99V253.74Z" fill="#172C59"/>
<path d="M356.99 253.74H351.92V283.88H356.99V253.74Z" fill="#172C59"/>
<path d="M368.99 253.74H363.92V283.88H368.99V253.74Z" fill="#172C59"/>
<path d="M380.99 253.74H375.92V283.88H380.99V253.74Z" fill="#172C59"/>
<path d="M392.99 253.74H387.92V283.88H392.99V253.74Z" fill="#172C59"/>
<path d="M404.99 253.74H399.92V283.88H404.99V253.74Z" fill="#172C59"/>
<path d="M437.45 106.38H283.46V125.37H437.45V106.38Z" fill="#3CC5F0"/>
<path d="M233.64 157.91H208.09V261.63H233.64V157.91Z" fill="#172C59"/>
<path d="M512.8 161.05H487.25V264.77H512.8V161.05Z" fill="#172C59"/>
<path d="M462.15 329.87H258.75C246.942 329.87 237.37 339.442 237.37 351.25V654.27C237.37 666.078 246.942 675.65 258.75 675.65H462.15C473.958 675.65 483.53 666.078 483.53 654.27V351.25C483.53 339.442 473.958 329.87 462.15 329.87Z" fill="#3CC5F0"/>
<path d="M496.94 612.141H223.58V701.691H496.94V612.141Z" fill="#7FD3F4"/>
<path d="M281.4 329.87H434V451.87C434 472.101 425.963 491.503 411.658 505.808C397.353 520.114 377.951 528.15 357.72 528.15V528.15C337.489 528.15 318.087 520.114 303.782 505.808C289.477 491.503 281.44 472.101 281.44 451.87V329.87H281.4Z" fill="#172C59"/>
<path d="M326.98 384.98H314.98V454.271H326.98V384.98Z" fill="#D1D3D4"/>
<path d="M350.98 384.98H338.98V454.271H350.98V384.98Z" fill="#D1D3D4"/>
<path d="M374.98 384.98H362.98V454.271H374.98V384.98Z" fill="#D1D3D4"/>
<path d="M398.98 384.98H386.98V454.271H398.98V384.98Z" fill="#D1D3D4"/>
<path d="M306.48 675.66H266.65V991.41H306.48V675.66Z" fill="#172C59"/>
<path d="M453.87 675.66H414.04V991.41H453.87V675.66Z" fill="#172C59"/>
<path d="M299.719 852.372C317.713 845.102 326.406 824.621 319.136 806.627C311.866 788.633 291.385 779.939 273.391 787.209C255.397 794.479 246.704 814.96 253.974 832.954C261.244 850.948 281.725 859.642 299.719 852.372Z" fill="#3CC5F0"/>
<path d="M455.314 851.768C470.735 839.986 473.685 817.933 461.903 802.511C450.121 787.09 428.068 784.139 412.647 795.921C397.225 807.704 394.275 829.756 406.057 845.178C417.839 860.6 439.892 863.55 455.314 851.768Z" fill="#3CC5F0"/>
<path d="M306.48 1116.75H223.58L247.82 1007.63C248.839 1003.04 251.393 998.924 255.061 995.976C258.73 993.027 263.293 991.417 268 991.41H306.44L306.48 1116.75Z" fill="#3CC5F0"/>
<path d="M306.48 1116.75H205.48C205.483 1106.53 209.543 1096.74 216.769 1089.51C223.994 1082.29 233.793 1078.23 244.01 1078.23H306.44L306.48 1116.75Z" fill="#172C59"/>
<path d="M239.46 1100.68H225.39V1116.75H239.46V1100.68Z" fill="#D1D3D4"/>
<path d="M262.48 1100.68H248.41V1116.75H262.48V1100.68Z" fill="#D1D3D4"/>
<path d="M284.17 1100.68H270.1V1116.75H284.17V1100.68Z" fill="#D1D3D4"/>
<path d="M414 1116.75H496.9L472.66 1007.63C471.638 1003.03 469.078 998.914 465.401 995.965C461.725 993.016 457.153 991.41 452.44 991.41H414V1116.75Z" fill="#3CC5F0"/>
<path d="M414 1116.75H515C514.997 1106.54 510.938 1096.74 503.715 1089.52C496.492 1082.29 486.695 1078.23 476.48 1078.23H414V1116.75Z" fill="#172C59"/>
<path d="M481.05 1116.76H495.12V1100.69H481.05V1116.76Z" fill="#D1D3D4"/>
<path d="M458.04 1116.76H472.11V1100.69H458.04V1116.76Z" fill="#D1D3D4"/>
<path d="M436.35 1116.76H450.42V1100.69H436.35V1116.76Z" fill="#D1D3D4"/>
<path d="M293.96 885.74H279.17V991.41H293.96V885.74Z" fill="#D1D3D4"/>
<path d="M441.35 885.74H426.56V991.41H441.35V885.74Z" fill="#D1D3D4"/>
<path d="M294.15 675.66H279.36V696.81H294.15V675.66Z" fill="#D1D3D4"/>
<path d="M441.54 675.66H426.75V696.81H441.54V675.66Z" fill="#D1D3D4"/>
<path d="M237.37 348.75H208.1H167.81V419.12V419.62H181.56V568.17L194.34 567.36V419.62H237.37V348.75Z" fill="#172C59"/>
<path d="M194.34 394.71H181.57V419.62H194.34V394.71Z" fill="#D1D3D4"/>
<path d="M187.35 594.36C198.142 594.36 206.89 585.612 206.89 574.82C206.89 564.029 198.142 555.28 187.35 555.28C176.558 555.28 167.81 564.029 167.81 574.82C167.81 585.612 176.558 594.36 187.35 594.36Z" fill="#3CC5F0"/>
<path d="M483.53 348.75H512.81H553.09V419.12V419.62H539.34V568.17L526.56 567.36V419.62H483.53V348.75Z" fill="#172C59"/>
<path d="M526.56 419.62H539.33V394.71H526.56V419.62Z" fill="#D1D3D4"/>
<path d="M533.55 594.36C544.342 594.36 553.09 585.612 553.09 574.82C553.09 564.029 544.342 555.28 533.55 555.28C522.758 555.28 514.01 564.029 514.01 574.82C514.01 585.612 522.758 594.36 533.55 594.36Z" fill="#3CC5F0"/>
<path d="M156.41 528.93L525.57 637.5C526.458 656.636 533.474 674.981 545.582 689.827C557.69 704.673 574.249 715.235 592.816 719.953C611.384 724.672 630.976 723.298 648.703 716.034C666.43 708.77 681.353 696 691.27 679.61L634.27 680.89C624.968 681.1 615.907 677.919 608.777 671.941C601.647 665.963 596.935 657.596 595.52 648.4V648.4C594.693 643.037 595.015 637.559 596.463 632.329C597.911 627.1 600.453 622.237 603.92 618.063C607.387 613.889 611.701 610.498 616.576 608.115C621.451 605.732 626.776 604.411 632.2 604.24L698.51 602.15C692.833 586.95 683.125 573.583 670.426 563.484C657.727 553.385 642.518 546.934 626.431 544.825C610.344 542.716 593.986 545.027 579.113 551.511C564.24 557.995 551.413 568.407 542.01 581.63L172.84 473.07C171.944 453.936 164.922 435.597 152.811 420.757C140.7 405.917 124.141 395.362 105.575 390.648C87.0099 385.934 67.421 387.312 49.6977 394.577C31.9744 401.842 17.055 414.611 7.13989 431L64.1399 429.72C73.4414 429.511 82.5012 432.693 89.6306 438.67C96.76 444.648 101.473 453.014 102.89 462.21C103.718 467.573 103.398 473.051 101.95 478.281C100.503 483.511 97.9615 488.375 94.494 492.549C91.0265 496.724 86.7122 500.115 81.8362 502.497C76.9603 504.88 71.6341 506.199 66.2099 506.37L-0.100098 508.46C5.57649 523.659 15.2851 537.026 27.9838 547.125C40.6824 557.224 55.8915 563.675 71.9788 565.784C88.0661 567.894 104.424 565.582 119.297 559.098C134.17 552.614 146.997 542.202 156.4 528.98L156.41 528.93Z" fill="#D1D3D4"/>
<path d="M197.25 510.6C197.702 509.058 198.454 507.62 199.462 506.369C200.471 505.118 201.716 504.077 203.127 503.307C204.537 502.537 206.086 502.053 207.684 501.882C209.282 501.711 210.898 501.857 212.44 502.31L474.44 579.31C477.551 580.229 480.172 582.344 481.726 585.191C483.28 588.039 483.641 591.387 482.73 594.5V594.5C481.814 597.614 479.7 600.236 476.851 601.79C474.003 603.345 470.654 603.705 467.54 602.791L205.54 525.79C203.998 525.338 202.56 524.586 201.308 523.578C200.057 522.57 199.017 521.324 198.247 519.914C197.477 518.503 196.992 516.954 196.821 515.356C196.65 513.758 196.796 512.142 197.25 510.6Z" fill="white"/>
<path d="M261 465.86C256.196 463.753 250.753 463.637 245.863 465.538C240.974 467.439 237.039 471.201 234.92 476L215.46 520.34L224.8 524.44L185.8 568.93C184.685 570.202 184.121 571.865 184.232 573.552C184.343 575.24 185.119 576.814 186.39 577.93V577.93C187.019 578.483 187.751 578.907 188.545 579.177C189.338 579.446 190.176 579.557 191.012 579.502C191.848 579.447 192.665 579.228 193.417 578.857C194.168 578.486 194.838 577.971 195.39 577.34L237.08 529.82L251.75 536.26L271.2 492C272.251 489.615 272.821 487.045 272.876 484.439C272.932 481.833 272.473 479.241 271.526 476.813C270.578 474.384 269.161 472.167 267.354 470.287C265.548 468.408 263.389 466.903 261 465.86Z" fill="#172C59"/>
<path d="M215.46 520.38L251.74 536.3L256.42 525.63L220.35 509.24L215.46 520.38Z" fill="#3CC5F0"/>
<path d="M521.22 631.08L488.52 634.08L484.89 594.67C484.492 590.333 485.834 586.017 488.618 582.669C491.403 579.322 495.404 577.218 499.74 576.82V576.82C504.076 576.419 508.394 577.758 511.743 580.541C515.093 583.324 517.199 587.323 517.6 591.66L521.22 631.08Z" fill="#172C59"/>
<path d="M520.285 621.521L487.583 624.526L488.467 634.146L521.169 631.141L520.285 621.521Z" fill="#3CC5F0"/>
<path d="M506.22 647.26C504.461 647.424 502.709 646.885 501.346 645.761C499.984 644.637 499.122 643.018 498.95 641.26L498.21 633.26L511.52 632.04L512.26 640.04C512.41 641.797 511.859 643.542 510.728 644.895C509.596 646.247 507.976 647.097 506.22 647.26V647.26Z" fill="#172C59"/>
<path d="M366.45 30.4395H351.92V106.379H366.45V30.4395Z" fill="#172C59"/>
<path d="M358.97 44.3701C371.131 44.3701 380.99 34.5114 380.99 22.3501C380.99 10.1888 371.131 0.330078 358.97 0.330078C346.809 0.330078 336.95 10.1888 336.95 22.3501C336.95 34.5114 346.809 44.3701 358.97 44.3701Z" fill="#C5403F"/>
<path d="M375.555 17.9993C377.07 11.5472 373.067 5.08908 366.615 3.57458C360.163 2.06008 353.705 6.06275 352.19 12.5148C350.676 18.9668 354.679 25.425 361.131 26.9395C367.583 28.454 374.041 24.4513 375.555 17.9993Z" fill="#EA8088"/>
<path d="M233.65 171.72H220.87V184.5H233.65V171.72Z" fill="#EA8088"/>
<path d="M233.65 192.83H220.87V205.61H233.65V192.83Z" fill="#EA8088"/>
<path d="M233.65 213.939H220.87V226.719H233.65V213.939Z" fill="#EA8088"/>
<path d="M233.65 235.05H220.87V247.83H233.65V235.05Z" fill="#EA8088"/>
<path d="M499.93 174.859H487.15V187.639H499.93V174.859Z" fill="#EA8088"/>
<path d="M499.93 195.97H487.15V208.75H499.93V195.97Z" fill="#EA8088"/>
<path d="M499.93 217.08H487.15V229.86H499.93V217.08Z" fill="#EA8088"/>
<path d="M499.93 238.18H487.15V250.96H499.93V238.18Z" fill="#EA8088"/>
<path d="M562.93 283.88L638.42 182.83L641.07 238.18L725.8 181.25L621.88 291.37L623.22 231.89L562.93 283.88Z" fill="#F7941D"/>
<path d="M173.48 686.23L33.7301 819.781L112.95 794.86L27.8901 915.061L202.59 752.781L140.93 758.61L173.48 686.23Z" fill="#F7941D"/>
<path d="M167.81 311.6L141.51 215.61L121.08 249.97L83 184.05L112.72 308.47L134.08 265.76L167.81 311.6Z" fill="#F7941D"/>
<path d="M505.73 746.95L522.98 809.94L536.39 787.39L561.38 830.65L541.88 749.01L527.86 777.03L505.73 746.95Z" fill="#F7941D"/>
</g>
<defs>
<clipPath id="clip0_2130_45766">
<rect width="726" height="1144" fill="white"/>
</clipPath>
</defs>
</svg>
